<?xml version="1.0" standalone="no"?>
<!DOCTYPE svg PUBLIC "-//W3C//DTD SVG 20010904//EN"
 "http://www.w3.org/TR/2001/REC-SVG-20010904/DTD/svg10.dtd">
<svg version="1.0" xmlns="http://www.w3.org/2000/svg"
 width="1640.000000pt" height="624.000000pt" viewBox="0 0 1640.000000 624.000000"
 preserveAspectRatio="xMidYMid meet">
<metadata>
Created by potrace 1.15, written by Peter Selinger 2001-2017
</metadata>
<g transform="translate(0.000000,624.000000) scale(0.100000,-0.100000)"
fill="#000000" stroke="none">
<path d="M7233 5515 c-17 -7 -36 -22 -42 -34 -15 -28 -15 -1224 0 -1253 24
-45 55 -48 449 -48 l370 0 0 -65 0 -65 -61 0 c-33 0 -70 -5 -82 -11 -31 -16
-147 -131 -147 -146 0 -30 44 -33 480 -33 436 0 480 3 480 33 0 15 -116 130
-147 146 -12 6 -49 11 -82 11 l-61 0 0 65 0 65 370 0 c394 0 425 3 449 48 15
28 15 1225 1 1253 -28 50 1 49 -1007 49 -775 -1 -944 -3 -970 -15z m1915 -57
c9 -9 12 -137 12 -515 l0 -503 -55 0 c-42 0 -56 -4 -63 -17 -17 -33 -3 -43 59
-43 l60 0 -3 -62 -3 -63 -955 0 -955 0 -3 63 -3 62 604 0 c549 0 605 1 611 16
17 44 16 44 -615 44 l-599 0 0 505 c0 469 1 505 18 514 27 16 1874 15 1890 -1z
m-818 -1343 l0 -65 -130 0 -130 0 0 65 0 65 130 0 130 0 0 -65z m202 -155 l33
-29 -365 0 -365 0 33 29 32 30 300 0 300 0 32 -30z"/>
<path d="M7312 5383 c-23 -44 -38 -43 758 -43 691 0 758 1 764 16 17 44 26 44
-765 44 -703 0 -749 -1 -757 -17z"/>
<path d="M7410 5203 c-28 -10 -40 -37 -40 -93 0 -85 9 -90 162 -90 149 0 153
3 153 92 0 88 -16 98 -154 97 -58 0 -113 -3 -121 -6z"/>
<path d="M8265 5195 c-49 -17 -112 -86 -121 -131 -7 -37 0 -167 11 -200 5 -18
-2 -25 -57 -52 -104 -51 -205 -164 -177 -198 20 -24 36 -16 73 36 19 27 53 61
74 75 54 35 139 67 147 55 4 -6 25 -20 47 -31 50 -26 112 -22 156 10 17 11 39
21 49 21 42 0 124 -53 182 -117 41 -46 64 -64 75 -60 36 14 10 72 -63 141 -45
41 -89 67 -153 89 -16 6 -16 9 -1 52 25 74 14 185 -23 237 -49 70 -142 101
-219 73z m135 -74 c44 -31 62 -78 57 -153 -5 -77 -27 -122 -78 -156 -43 -30
-81 -24 -126 20 -43 41 -56 85 -51 169 3 59 8 72 33 99 48 50 111 58 165 21z"/>
<path d="M7387 4932 c-25 -28 -23 -126 3 -152 18 -18 33 -20 135 -20 110 0
117 1 140 25 33 32 35 100 4 139 -20 26 -23 26 -143 26 -106 0 -125 -2 -139
-18z"/>
<path d="M7387 4672 c-12 -13 -17 -36 -17 -75 0 -49 3 -58 27 -77 25 -20 37
-21 141 -18 107 3 115 4 134 28 16 20 19 35 16 77 -7 81 -11 83 -158 83 -110
0 -129 -2 -143 -18z"/>
<path d="M3280 4040 l0 -100 1845 0 1845 0 0 100 0 100 -1845 0 -1845 0 0
-100z"/>
<path d="M9430 4040 l0 -100 1845 0 1845 0 0 100 0 100 -1845 0 -1845 0 0
-100z"/>
<path d="M3540 2175 l0 -645 78 0 79 0 1 233 c0 127 1 239 1 248 1 14 21 17
150 21 142 4 151 5 212 35 120 59 143 128 137 393 -5 191 -13 223 -67 277 -68
68 -139 83 -397 83 l-194 0 0 -645z m466 471 l34 -34 0 -187 0 -187 -34 -34
-34 -34 -139 0 -138 0 2 247 c1 137 2 251 2 256 1 4 62 7 137 7 l136 0 34 -34z"/>
<path d="M8163 2809 c-46 -13 -99 -72 -112 -124 -6 -24 -11 -87 -11 -139 l0
-96 -80 0 -81 0 3 -67 3 -68 78 -3 77 -3 0 -319 0 -319 -77 -3 -78 -3 -3 -67
-3 -68 271 0 270 0 0 70 0 69 -112 3 -113 3 0 318 0 317 147 0 148 0 0 70 0
69 -147 3 -148 3 1 99 c0 129 -4 126 176 126 l138 0 0 70 0 70 -157 -1 c-87 0
-173 -5 -190 -10z"/>
<path d="M10000 2750 l0 -70 135 0 134 0 3 -517 c3 -497 4 -519 23 -552 42
-72 55 -76 261 -79 l185 -3 -3 68 -3 68 -139 3 c-82 1 -145 7 -153 14 -10 8
-13 120 -13 574 l0 564 -215 0 -215 0 0 -70z"/>
<path d="M11360 2735 l0 -85 85 0 85 0 0 85 0 85 -85 0 -85 0 0 -85z"/>
<path d="M6990 2560 l0 -110 -85 0 -85 0 0 -70 0 -70 85 0 85 0 0 -285 c0
-165 5 -305 11 -334 14 -68 45 -112 99 -138 39 -21 59 -23 182 -23 l138 0 0
70 0 70 -118 0 c-103 0 -121 3 -135 18 -15 16 -17 54 -17 320 l0 302 135 0
135 0 0 70 0 70 -135 0 -135 0 0 110 0 110 -80 0 -80 0 0 -110z"/>
<path d="M4813 2440 c-92 -19 -163 -76 -190 -154 -15 -43 -18 -87 -18 -296 0
-289 7 -324 80 -388 56 -49 97 -62 222 -69 163 -9 281 24 331 95 46 64 54 125
50 390 -3 242 -4 248 -29 297 -31 63 -95 107 -174 123 -65 13 -208 14 -272 2z
m265 -144 c53 -28 57 -48 57 -306 0 -260 -3 -275 -59 -305 -25 -14 -52 -16
-143 -13 -108 3 -114 4 -140 31 l-28 27 0 259 c0 328 -5 319 183 320 70 1 112
-3 130 -13z"/>
<path d="M5720 2380 l0 -70 65 0 65 0 0 -320 0 -320 -65 0 -65 0 0 -70 0 -70
245 0 246 0 -3 68 -3 67 -101 3 -101 3 1 272 c2 289 3 297 52 336 24 19 40 21
150 21 l124 0 0 75 0 75 -112 0 c-103 -1 -132 -6 -200 -35 -14 -5 -18 -2 -18
14 0 20 -4 21 -140 21 l-140 0 0 -70z"/>
<path d="M9143 2440 c-92 -19 -163 -76 -190 -154 -15 -43 -18 -87 -18 -296 0
-289 7 -324 80 -388 56 -49 97 -62 222 -69 163 -9 281 24 331 95 46 64 54 125
50 390 -3 242 -4 248 -29 297 -31 63 -95 107 -174 123 -65 13 -208 14 -272 2z
m265 -144 c53 -28 57 -48 57 -306 0 -260 -3 -275 -59 -305 -25 -14 -52 -16
-143 -13 -108 3 -114 4 -140 31 l-28 27 0 259 c0 328 -5 319 183 320 70 1 112
-3 130 -13z"/>
<path d="M11100 2380 l0 -70 135 0 135 0 0 -390 0 -390 215 0 215 0 0 70 0 70
-140 0 -140 0 0 390 0 390 -210 0 -210 0 0 -70z"/>
<path d="M12393 2440 c-92 -19 -163 -76 -190 -154 -15 -43 -18 -87 -18 -296 0
-289 7 -324 80 -388 56 -49 97 -62 222 -69 163 -9 281 24 331 95 46 64 54 125
50 390 -3 242 -4 248 -29 297 -31 63 -95 107 -174 123 -65 13 -208 14 -272 2z
m265 -144 c53 -28 57 -48 57 -306 0 -260 -3 -275 -59 -305 -25 -14 -52 -16
-143 -13 -108 3 -114 4 -140 31 l-28 27 0 259 c0 328 -5 319 183 320 70 1 112
-3 130 -13z"/>
<path d="M3280 455 l0 -105 4920 0 4920 0 0 105 0 105 -4920 0 -4920 0 0 -105z"/>
</g>
</svg>
